<?xml version="1.0" encoding="UTF-8"?>
<svg version="1.1" xmlns="http://www.w3.org/2000/svg" width="512" height="512">
<path d="M0 0 C1.69154647 -0.01653294 3.38302383 -0.04378815 5.07421875 -0.08203125 C7.51892155 -0.13700599 9.96198756 -0.15870539 12.40722656 -0.17333984 C13.1574408 -0.19600922 13.90765503 -0.21867859 14.68060303 -0.24203491 C18.63240757 -0.22625713 21.19675466 0.27472611 24.24194336 2.72241211 C30.2544916 8.90381021 29.72310504 18.3075915 30.56542969 26.49658203 C31.52667509 36.09277406 31.52667509 36.09277406 36.50097656 44.10400391 C39.72479096 45.85297804 43.09709934 47.07615066 46.54785156 48.28759766 C50.94473838 49.86435111 55.1646053 51.40485486 59.23535156 53.72509766 C63.49683991 55.66893445 67.19099448 56.42661409 71.79785156 55.35009766 C77.0684861 52.21816627 81.75081485 48.27606659 86.49902344 44.41650391 C97.35338402 35.73782357 97.35338402 35.73782357 102.92285156 35.91259766 C111.31594024 36.86020444 116.2987539 43.51820521 121.98535156 49.22509766 C122.89994141 50.12357422 123.81453125 51.02205078 124.75683594 51.94775391 C126.0668457 53.25679687 126.0668457 53.25679687 127.40332031 54.59228516 C128.19891357 55.38489746 128.99450684 56.17750977 129.81420898 56.99414062 C132.84408219 60.59269773 133.76139103 63.29274219 133.92285156 67.97509766 C132.72736219 75.3266702 126.68513174 81.08030662 122.07910156 86.62744141 C115.69812932 93.8773102 115.69812932 93.8773102 113.22363281 102.85791016 C114.34169017 107.71043119 116.63948229 112.07272136 118.89550781 116.47900391 C121.2082927 121.03033614 122.79566979 125.79081942 124.36425781 130.64306641 C126.25582061 134.21487299 128.30239396 135.35470668 131.79785156 137.35009766 C135.05956888 138.18159039 135.05956888 138.18159039 138.51660156 138.47509766 C139.77859375 138.62462891 141.04058594 138.77416016 142.34082031 138.92822266 C144.29955078 139.13705078 144.29955078 139.13705078 146.29785156 139.35009766 C148.89324035 139.62680248 151.48713564 139.91798014 154.07910156 140.22509766 C155.22443359 140.34626953 156.36976563 140.46744141 157.54980469 140.59228516 C162.24582444 141.68792897 165.54632853 143.88998746 168.67285156 147.53759766 C170.25636751 151.49638751 170.04548292 155.14036458 169.79785156 159.35009766 C170.78785156 159.30369141 171.77785156 159.25728516 172.79785156 159.20947266 C187.160188 158.72927296 187.160188 158.72927296 192.79785156 163.35009766 C197.9524236 168.26850404 201.54356022 172.63211183 202.04394722 179.94825459 C202.05230934 181.36630258 202.04969864 182.78444155 202.0383606 184.20246887 C202.04092387 185.37881481 202.04092387 185.37881481 202.04353893 186.57892531 C202.04682947 189.20301949 202.03583734 191.82685717 202.02490234 194.45092773 C202.02433814 196.33341465 202.02465498 198.21590201 202.02578735 200.09838867 C202.02636149 205.20747231 202.01459723 210.31646216 202.00063944 215.425524 C201.98814231 220.76534186 201.98696238 226.10516184 201.98458862 231.44499207 C201.97837087 241.55610497 201.96195603 251.66717465 201.94188964 261.77826852 C201.91953986 273.28964671 201.90853953 284.80102696 201.89849877 296.31242144 C201.87759008 319.99167081 201.84240833 343.67088181 201.79785156 367.35009766 C202.89943604 367.49560059 204.00102051 367.64110352 205.13598633 367.79101562 C213.62143338 369.08654691 221.10117412 374.02862333 226.79785156 380.35009766 C234.60042758 391.17816234 238.12892017 402.45986249 236.23535156 415.85009766 C233.63506573 427.92659293 227.3593017 437.54979461 217.11035156 444.22509766 C214.30394668 445.95629624 211.92887785 447.30642223 208.79785156 448.35009766 C209.94640625 448.37587891 211.09496094 448.40166016 212.27832031 448.42822266 C226.04620049 448.87143626 238.54506761 450.20108682 248.79785156 460.35009766 C257.35644404 469.58032856 259.47612605 479.32477485 259.31933594 491.70214844 C259.29765583 493.74352721 259.31935086 495.78147377 259.34472656 497.82275391 C259.33957031 499.11826172 259.33441406 500.41376953 259.32910156 501.74853516 C259.32458984 502.92077637 259.32007813 504.09301758 259.31542969 505.30078125 C258.68147914 509.0357069 257.71061316 510.00119056 254.79785156 512.35009766 C252.42713165 512.85346222 252.42713165 512.85346222 249.75012207 512.85803223 C248.73229141 512.86931152 247.71446075 512.88059082 246.66578674 512.89221191 C244.99962563 512.88006653 244.99962563 512.88006653 243.29980469 512.86767578 C241.53829323 512.8781897 241.53829323 512.8781897 239.74119568 512.88891602 C236.5241016 512.9035025 233.30766605 512.90008709 230.09058189 512.88739967 C226.72252401 512.87726607 223.35450982 512.88666634 219.9864502 512.89294434 C214.33056755 512.90021975 208.67489388 512.89063605 203.01904297 512.87158203 C196.48189626 512.84981321 189.94524857 512.85686468 183.40811396 512.87888765 C177.79353647 512.8970449 172.17910914 512.89959848 166.56451178 512.88913298 C163.21199712 512.88289972 159.85971696 512.88205747 156.50721741 512.89527893 C152.76976576 512.90541472 149.03327811 512.88998304 145.29589844 512.86767578 C144.18512436 512.87577271 143.07435028 512.88386963 141.92991638 512.89221191 C140.91208572 512.88093262 139.89425507 512.86965332 138.84558105 512.85803223 C137.52046131 512.85577007 137.52046131 512.85577007 136.16857147 512.85346222 C133.00106196 512.18091881 131.81090676 510.83413313 129.79785156 508.35009766 C125.88069615 496.59863142 128.41717637 480.17177454 133.36035156 469.16259766 C137.8173238 460.80170814 144.82156518 454.54799862 153.79785156 451.35009766 C159.68896463 449.63631931 165.18110313 448.9641888 171.29785156 448.72509766 C172.12027344 448.68642578 172.94269531 448.64775391 173.79003906 448.60791016 C175.79232166 448.51478073 177.79505418 448.43140781 179.79785156 448.35009766 C179.16878906 448.07037109 178.53972656 447.79064453 177.89160156 447.50244141 C167.40585049 442.59119354 161.05717836 436.70439729 155.79785156 426.35009766 C155.46785156 425.70298828 155.13785156 425.05587891 154.79785156 424.38916016 C150.34154421 414.23392129 150.94255509 401.98341041 154.76660156 391.76025391 C159.94749952 380.40078507 168.11600028 373.29881103 179.34863281 368.18994141 C181.79785156 367.35009766 181.79785156 367.35009766 185.79785156 367.35009766 C185.76071208 343.03731733 185.70089146 318.72468482 185.61394882 294.41202927 C185.57411212 283.12364203 185.54174318 271.83532498 185.52685547 260.546875 C185.51386294 250.70970778 185.48695979 240.87269468 185.4432385 231.03561425 C185.42056964 225.82524906 185.40494413 220.61507434 185.40596771 215.40465546 C185.40671113 210.50279273 185.38888902 205.60135192 185.35668373 200.69959831 C185.34814867 198.89845897 185.34645912 197.09727249 185.35204887 195.2961216 C185.35865632 192.84037008 185.34084807 190.38597385 185.3168335 187.93035889 C185.32459391 187.21440292 185.33235433 186.49844696 185.34034991 185.76079535 C185.28188656 182.39341851 185.01526024 180.63355841 182.94021988 177.92808914 C180.30083893 175.98401602 178.2786643 175.56164233 175.04785156 175.10009766 C173.57058594 174.87580078 173.57058594 174.87580078 172.06347656 174.64697266 C171.31582031 174.54900391 170.56816406 174.45103516 169.79785156 174.35009766 C169.84425781 174.93017578 169.89066406 175.51025391 169.93847656 176.10791016 C170.19914837 181.74959294 169.68142892 184.94171255 165.79785156 189.35009766 C161.96093176 192.10191286 158.84117659 192.86497918 154.17675781 193.37744141 C152.91154297 193.53019531 151.64632813 193.68294922 150.34277344 193.84033203 C147.69245337 194.14155669 145.04114682 194.43230137 142.38964844 194.72314453 C141.12314453 194.8771875 139.85664063 195.03123047 138.55175781 195.18994141 C136.82421265 195.38124634 136.82421265 195.38124634 135.06176758 195.57641602 C131.19308742 196.4934515 128.86707146 197.83320564 125.79785156 200.35009766 C124.25915684 202.69053102 124.25915684 202.69053102 123.34863281 205.34228516 C122.78885742 206.77121094 122.78885742 206.77121094 122.21777344 208.22900391 C121.85232422 209.21771484 121.486875 210.20642578 121.11035156 211.22509766 C120.35835911 213.18156349 119.60450226 215.13731391 118.84863281 217.09228516 C118.3251123 218.46852051 118.3251123 218.46852051 117.79101562 219.87255859 C116.79785156 222.35009766 116.79785156 222.35009766 115.05175781 225.79541016 C113.41861588 229.12274606 113.22975049 231.04885973 113.76660156 234.66650391 C115.98109628 240.42922312 120.47467849 245.00366114 124.40722656 249.68261719 C134.0673243 261.26591556 134.0673243 261.26591556 133.79785156 269.35009766 C131.9006339 273.92112026 129.5062485 277.01729289 126.01660156 280.49462891 C125.09234375 281.41824219 124.16808594 282.34185547 123.21582031 283.29345703 C122.73677246 283.76420654 122.25772461 284.23495605 121.76416016 284.7199707 C120.29303527 286.16733617 118.83585894 287.62774451 117.37988281 289.09033203 C109.10089542 297.30581255 109.10089542 297.30581255 101.12597656 297.77587891 C94.29021784 296.52571498 88.76357694 291.06058117 83.61035156 286.72509766 C82.22396373 285.56273371 80.83473384 284.40374933 79.44238281 283.24853516 C78.8375708 282.73983887 78.23275879 282.23114258 77.60961914 281.70703125 C73.77975308 278.83863136 70.48277679 277.74233954 65.61425781 277.83056641 C60.55134924 278.764501 56.10170124 281.25572062 51.53613281 283.54541016 C47.51292551 285.54929073 43.37222609 286.95005363 39.06738281 288.23291016 C35.87753225 289.8031292 34.6448265 291.29317384 32.79785156 294.35009766 C31.9507909 297.50507568 31.55515081 300.67241527 31.17285156 303.91259766 C30.92813232 305.70818044 30.68334088 307.5037534 30.43847656 309.29931641 C30.06041086 312.23806699 29.69835724 315.17778748 29.34472656 318.11962891 C28.49109419 324.40331168 27.51882644 327.98319589 22.79785156 332.35009766 C20.79785156 333.35009766 20.79785156 333.35009766 10.79785156 333.35009766 C10.79785156 344.57009766 10.79785156 355.79009766 10.79785156 367.35009766 C13.10785156 367.68009766 15.41785156 368.01009766 17.79785156 368.35009766 C27.83677515 371.69640552 35.94844509 379.20853418 40.79785156 388.53759766 C45.77206916 399.27239814 46.83663922 411.76259687 42.83691406 423.01416016 C37.27635532 435.51496516 29.95696112 442.34749927 17.79785156 448.35009766 C18.98121094 448.38748047 20.16457031 448.42486328 21.38378906 448.46337891 C37.03001826 449.0644564 48.97052076 451.53708247 60.22753906 463.29150391 C67.45680214 472.76867216 68.01628131 482.91115552 68.11035156 494.35009766 C68.15385742 496.11353516 68.15385742 496.11353516 68.19824219 497.91259766 C68.20662109 499.04697266 68.215 500.18134766 68.22363281 501.35009766 C68.24550659 502.89697266 68.24550659 502.89697266 68.26782227 504.47509766 C67.62553029 508.40425628 66.82230403 509.70074997 63.79785156 512.35009766 C59.94688829 513.12580018 56.12484215 513.0324618 52.20800781 512.99707031 C51.02391327 513.00583191 49.83981873 513.01459351 48.61984253 513.02362061 C45.37576741 513.04185503 42.13271257 513.0375846 38.8886528 513.02172518 C35.49256001 513.00905866 32.09653495 513.02080834 28.70043945 513.02865601 C22.99743426 513.03775049 17.29475289 513.02577036 11.59179688 513.00195312 C5.00002498 512.97474169 -1.5909737 512.98355604 -8.18272686 513.01108515 C-13.84403695 513.03378137 -19.50511438 513.03697398 -25.16645527 513.02389181 C-28.54696132 513.01609989 -31.92710402 513.01504789 -35.30758667 513.03157425 C-39.07636112 513.04424412 -42.84364178 513.02495618 -46.61230469 512.99707031 C-47.7324295 513.00719147 -48.85255432 513.01731262 -50.00662231 513.02774048 C-57.5487052 512.92412316 -57.5487052 512.92412316 -60.89515686 509.98439026 C-62.40665731 506.93790204 -62.70453526 504.92003596 -62.69824219 501.52587891 C-62.69888672 500.4140625 -62.69953125 499.30224609 -62.70019531 498.15673828 C-62.68021484 497.00367188 -62.66023437 495.85060547 -62.63964844 494.66259766 C-62.64673828 493.52886719 -62.65382812 492.39513672 -62.66113281 491.22705078 C-62.56798488 478.7953848 -59.49671205 469.01750173 -51.13964844 459.72509766 C-42.52311466 451.46837518 -32.30623782 449.33725192 -20.88964844 448.78759766 C-20.05369141 448.74441406 -19.21773437 448.70123047 -18.35644531 448.65673828 C-16.30517908 448.55124459 -14.25368364 448.4502245 -12.20214844 448.35009766 C-12.90339844 448.00978516 -13.60464844 447.66947266 -14.32714844 447.31884766 C-26.74791439 440.97345636 -32.92864598 433.14407318 -38.20214844 420.35009766 C-41.03564784 409.72447488 -39.63313372 398.29694072 -35.20214844 388.35009766 C-30.04745717 379.77634534 -21.84512223 371.60525759 -12.20214844 368.35009766 C-9.89214844 368.02009766 -7.58214844 367.69009766 -5.20214844 367.35009766 C-5.20214844 356.13009766 -5.20214844 344.91009766 -5.20214844 333.35009766 C-8.50214844 333.35009766 -11.80214844 333.35009766 -15.20214844 333.35009766 C-20.18123961 330.32707802 -21.75945 327.8613264 -23.20214844 322.35009766 C-23.94713001 317.31983214 -24.44949542 312.26124503 -24.96972656 307.20361328 C-25.93097196 297.60742126 -25.93097196 297.60742126 -30.90527344 289.59619141 C-34.12908783 287.84721727 -37.50139622 286.62404466 -40.95214844 285.41259766 C-45.34903525 283.8358442 -49.56890217 282.29534046 -53.63964844 279.97509766 C-58.12862638 277.92749368 -61.3731729 277.07807483 -66.20214844 278.35009766 C-70.20346734 280.61038467 -73.65181091 283.4456985 -77.20214844 286.35009766 C-78.94739387 287.72285785 -80.70104981 289.08396282 -82.45898438 290.44042969 C-83.60265837 291.32429427 -84.74153198 292.21441283 -85.875 293.11132812 C-90.35566292 296.61956235 -93.38136952 297.45516515 -99.06933594 297.67822266 C-106.23750315 296.5754277 -111.55752772 289.32446363 -116.38964844 284.47509766 C-117.30423828 283.57662109 -118.21882812 282.67814453 -119.16113281 281.75244141 C-120.03447266 280.87974609 -120.9078125 280.00705078 -121.80761719 279.10791016 C-123.00100708 277.9189917 -123.00100708 277.9189917 -124.21850586 276.70605469 C-127.24837907 273.10749759 -128.1656879 270.40745312 -128.32714844 265.72509766 C-127.13165907 258.37352511 -121.08942861 252.61988869 -116.48339844 247.07275391 C-116.03150146 246.51547607 -115.57960449 245.95819824 -115.11401367 245.3840332 C-113.82866449 243.80380022 -112.51795673 242.24429438 -111.20605469 240.68603516 C-108.68869111 236.49533634 -107.85657307 233.22377917 -108.20214844 228.35009766 C-109.08001335 225.17694221 -110.4117868 222.34732677 -111.88964844 219.41259766 C-112.6427685 217.83924783 -113.39408645 216.26503405 -114.14355469 214.68994141 C-114.50465332 213.94341309 -114.86575195 213.19688477 -115.23779297 212.42773438 C-116.76227834 209.14333678 -117.92304329 205.7418992 -119.02246094 202.29541016 C-120.83120897 199.31277268 -123.21073985 198.09221231 -126.20214844 196.35009766 C-129.46386576 195.51860492 -129.46386576 195.51860492 -132.92089844 195.22509766 C-134.18289062 195.07556641 -135.44488281 194.92603516 -136.74511719 194.77197266 C-138.0509375 194.63275391 -139.35675781 194.49353516 -140.70214844 194.35009766 C-143.29753722 194.07339283 -145.89143252 193.78221517 -148.48339844 193.47509766 C-149.62873047 193.35392578 -150.7740625 193.23275391 -151.95410156 193.10791016 C-156.65012132 192.01226634 -159.95062541 189.81020786 -163.07714844 186.16259766 C-164.66066438 182.2038078 -164.4497798 178.55983073 -164.20214844 174.35009766 C-166.14228907 174.57870337 -168.07932257 174.83378947 -170.01464844 175.10009766 C-171.63306641 175.30892578 -171.63306641 175.30892578 -173.28417969 175.52197266 C-176.20293811 176.10564939 -176.20293811 176.10564939 -177.85960102 177.92808914 C-179.69199807 181.23380573 -179.62580803 184.24803569 -179.60087585 187.93035889 C-179.60752268 188.69740088 -179.61416951 189.46444287 -179.62101775 190.25472856 C-179.63968039 192.82669194 -179.63704032 195.39819144 -179.63452148 197.97021484 C-179.64353666 199.81315266 -179.65386328 201.65608446 -179.66540527 203.49900818 C-179.6930301 208.50482576 -179.70226724 213.51052974 -179.70825934 218.51641369 C-179.71762874 223.74684862 -179.74383095 228.97719822 -179.76826477 234.20758057 C-179.81197296 244.11327653 -179.84049339 254.01895597 -179.86358815 263.9247191 C-179.89061668 275.20155077 -179.93452963 286.47829678 -179.97987688 297.75506735 C-180.07278502 320.95336437 -180.14443751 344.15168827 -180.20214844 367.35009766 C-178.5419165 367.5694397 -178.5419165 367.5694397 -176.84814453 367.79321289 C-167.54390452 369.21433057 -159.37013673 376.10382384 -153.63183594 383.32666016 C-147.15898041 393.05532326 -144.94751538 404.87936537 -146.76464844 416.41259766 C-150.02956873 429.86669872 -157.19807501 438.86349081 -168.71386719 445.96728516 C-171.20214844 447.35009766 -171.20214844 447.35009766 -174.20214844 448.35009766 C-173.05359375 448.37587891 -171.90503906 448.40166016 -170.72167969 448.42822266 C-156.95379951 448.87143626 -144.45493239 450.20108682 -134.20214844 460.35009766 C-124.69546471 470.60282158 -123.03760521 482.51565627 -122.95214844 495.97509766 C-122.93152344 496.79494141 -122.91089844 497.61478516 -122.88964844 498.45947266 C-122.8571937 503.50618493 -123.36835422 506.98935606 -126.20214844 511.35009766 C-128.65621019 512.57712853 -130.26464438 512.48401882 -133.0093689 512.49726868 C-134.02445023 512.50442398 -135.03953156 512.51157928 -136.08537292 512.51895142 C-137.76231987 512.52298477 -137.76231987 512.52298477 -139.47314453 512.52709961 C-140.64719345 512.53367081 -141.82124237 512.540242 -143.03086853 512.54701233 C-146.25612377 512.56336583 -149.48134507 512.57497356 -152.70663023 512.58321786 C-154.72114666 512.58836756 -156.73565848 512.59444326 -158.75017166 512.60072899 C-165.0516816 512.61977977 -171.35317983 512.63401186 -177.65471303 512.64234096 C-184.93167527 512.65211793 -192.20833369 512.67844948 -199.48518884 512.71884185 C-205.10817773 512.74898434 -210.73107943 512.76380798 -216.35414755 512.76712197 C-219.71345279 512.76947437 -223.07243341 512.77845879 -226.43165207 512.80358315 C-230.17880485 512.82781439 -233.92515689 512.82703864 -237.67236328 512.82006836 C-238.78627945 512.83287842 -239.90019562 512.84568848 -241.04786682 512.85888672 C-242.0685878 512.8519429 -243.08930878 512.84499908 -244.14096069 512.83784485 C-245.02697149 512.8402332 -245.91298229 512.84262156 -246.8258419 512.84508228 C-250.00476751 512.18291211 -251.20575347 510.8593627 -253.20214844 508.35009766 C-253.93365926 504.2121234 -253.81843993 500.08766179 -253.77856445 495.89013672 C-253.76488349 493.88455521 -253.80047202 491.87883222 -253.83691406 489.87353516 C-253.81876273 477.70003815 -250.868022 468.09644202 -242.29589844 459.25244141 C-231.10306337 449.08283194 -217.59574703 448.80929937 -203.20214844 448.35009766 C-204.14574219 447.93050781 -204.14574219 447.93050781 -205.10839844 447.50244141 C-216.99457681 441.93527051 -223.80483502 434.52279117 -229.01464844 422.47509766 C-232.81870708 411.22142418 -231.48218401 399.74849566 -226.51464844 389.16259766 C-220.76692367 378.45659466 -212.88076047 371.24296833 -201.20214844 367.35009766 C-199.53580395 367.31732815 -197.86840099 367.31294637 -196.20214844 367.35009766 C-196.20583561 366.37310913 -196.20952278 365.39612061 -196.21332169 364.38952637 C-196.30214137 340.61127811 -196.36786166 316.83305138 -196.40939713 293.05467224 C-196.43001754 281.55559389 -196.45812832 270.05662517 -196.50390625 258.55761719 C-196.54378979 248.53444406 -196.56958504 238.51135033 -196.57850242 228.48810005 C-196.58371455 223.18141984 -196.59595439 217.87496676 -196.62506866 212.56835938 C-196.65226159 207.57136676 -196.66058553 202.57469439 -196.65457916 197.57763481 C-196.65567766 195.74588721 -196.66360837 193.91412866 -196.67897034 192.08244514 C-196.69895928 189.57565105 -196.69405572 187.07005598 -196.6831665 184.56323242 C-196.69481787 183.84336403 -196.70646924 183.12349564 -196.71847367 182.38181305 C-196.64339197 175.95932608 -194.42468985 170.88635764 -190.23730469 166.10791016 C-189.58632812 165.56908203 -188.93535156 165.03025391 -188.26464844 164.47509766 C-187.29205078 163.64365234 -187.29205078 163.64365234 -186.29980469 162.79541016 C-181.44395273 159.44966486 -177.17124082 159.08124942 -171.38964844 159.22509766 C-170.69677734 159.23412109 -170.00390625 159.24314453 -169.29003906 159.25244141 C-167.59392448 159.27583609 -165.89798973 159.31170125 -164.20214844 159.35009766 C-164.24855469 158.77001953 -164.29496094 158.18994141 -164.34277344 157.59228516 C-164.60344525 151.95060238 -164.08572579 148.75848276 -160.20214844 144.35009766 C-156.36522863 141.59828246 -153.24547347 140.83521613 -148.58105469 140.32275391 C-147.31583984 140.17 -146.050625 140.01724609 -144.74707031 139.85986328 C-142.09675025 139.55863863 -139.4454437 139.26789394 -136.79394531 138.97705078 C-135.52744141 138.82300781 -134.2609375 138.66896484 -132.95605469 138.51025391 C-131.80435791 138.38271729 -130.65266113 138.25518066 -129.46606445 138.1237793 C-125.58302795 137.20334077 -123.27424573 135.89029152 -120.20214844 133.35009766 C-118.54964611 130.78169958 -118.54964611 130.78169958 -117.49902344 127.85009766 C-117.07621094 126.79822266 -116.65339844 125.74634766 -116.21777344 124.66259766 C-115.80011719 123.56947266 -115.38246094 122.47634766 -114.95214844 121.35009766 C-114.09353781 119.18312797 -113.23419244 117.01644922 -112.37402344 114.85009766 C-112.00374023 113.89103516 -111.63345703 112.93197266 -111.25195312 111.94384766 C-110.20214844 109.35009766 -110.20214844 109.35009766 -109.0859375 107.24853516 C-107.31025648 103.43425461 -107.82873053 100.14719422 -109.20214844 96.35009766 C-111.9846411 91.93928231 -115.46247706 88.00228232 -118.81152344 84.01757812 C-128.47162117 72.43427975 -128.47162117 72.43427975 -128.20214844 64.35009766 C-126.30155811 59.76261168 -123.89970893 56.68095832 -120.38574219 53.20556641 C-119.45697266 52.28195313 -118.52820313 51.35833984 -117.57128906 50.40673828 C-117.09022705 49.93598877 -116.60916504 49.46523926 -116.11352539 48.98022461 C-114.63316774 47.53125436 -113.16396593 46.07166651 -111.69628906 44.60986328 C-103.19908722 36.2071404 -103.19908722 36.2071404 -98.01464844 36.03759766 C-96.91056641 35.98152344 -96.91056641 35.98152344 -95.78417969 35.92431641 C-89.06727517 37.03194514 -83.6681647 42.19595309 -78.57714844 46.41259766 C-70.36747821 53.64715162 -70.36747821 53.64715162 -59.98339844 55.90478516 C-54.94917379 54.90076844 -50.49600338 52.44032446 -45.94042969 50.15478516 C-41.91722239 48.15090458 -37.77652297 46.75014168 -33.47167969 45.46728516 C-30.28182912 43.89706612 -29.04912338 42.40702147 -27.20214844 39.35009766 C-26.35508777 36.19511963 -25.95944768 33.02778005 -25.57714844 29.78759766 C-25.33242919 27.99201487 -25.08763776 26.19644192 -24.84277344 24.40087891 C-24.46470774 21.46212832 -24.10265412 18.52240783 -23.74902344 15.58056641 C-22.89539106 9.29688363 -21.92312332 5.71699942 -17.20214844 1.35009766 C-12.44907754 -1.02643779 -5.28289267 0.03783721 0 0 Z M-5.34667969 74.63134766 C-30.81147419 77.60366935 -53.70281016 89.68388036 -70.02636719 109.57275391 C-77.85886445 120.11582325 -83.79530618 132.69098906 -87.20214844 145.35009766 C-87.42644531 146.15705078 -87.65074219 146.96400391 -87.88183594 147.79541016 C-93.35532999 171.71382937 -87.2940283 196.41191055 -74.95214844 217.10009766 C-60.62749566 238.3952288 -39.2316701 252.47227613 -14.19824219 257.79150391 C8.9300915 262.10356612 33.83203919 257.29507262 53.52148438 244.20410156 C73.15566477 230.41117336 86.55033997 211.56453549 92.79785156 188.35009766 C93.02214844 187.54314453 93.24644531 186.73619141 93.47753906 185.90478516 C98.95103311 161.98636594 92.88973143 137.28828476 80.54785156 116.60009766 C67.59994086 97.35164113 47.39890571 81.78362255 24.49267578 76.85400391 C14.47850853 74.92105996 4.83304271 73.72086317 -5.34667969 74.63134766 Z " fill="#FED15B" transform="translate(253.2021484375,-0.35009765625)"/>
<path d="M0 0 C1.69154647 -0.01653294 3.38302383 -0.04378815 5.07421875 -0.08203125 C7.51892155 -0.13700599 9.96198756 -0.15870539 12.40722656 -0.17333984 C13.1574408 -0.19600922 13.90765503 -0.21867859 14.68060303 -0.24203491 C18.63240757 -0.22625713 21.19675466 0.27472611 24.24194336 2.72241211 C30.2544916 8.90381021 29.72310504 18.3075915 30.56542969 26.49658203 C31.52667509 36.09277406 31.52667509 36.09277406 36.50097656 44.10400391 C39.72479096 45.85297804 43.09709934 47.07615066 46.54785156 48.28759766 C50.94473838 49.86435111 55.1646053 51.40485486 59.23535156 53.72509766 C63.6273037 55.72844424 67.0503107 56.21247867 71.79785156 55.35009766 C74.9316967 53.84550136 74.9316967 53.84550136 77.79785156 51.35009766 C79.37753346 50.09548635 80.96109635 48.84575103 82.54785156 47.60009766 C83.30582031 46.98650391 84.06378906 46.37291016 84.84472656 45.74072266 C86.79785156 44.35009766 86.79785156 44.35009766 88.79785156 44.35009766 C91.69005281 52.20035818 93.29838049 60.13913858 94.79785156 68.35009766 C94.97131104 69.25026611 95.14477051 70.15043457 95.32348633 71.07788086 C95.86501138 74.8133725 95.99598837 78.48996959 96.03613281 82.25634766 C96.0504837 83.38764351 96.0504837 83.38764351 96.06512451 84.54179382 C96.08968389 86.97793735 96.10224836 89.41384586 96.11035156 91.85009766 C96.11396698 92.67635651 96.1175824 93.50261536 96.12130737 94.35391235 C96.17456009 124.5966806 96.17456009 124.5966806 90.79785156 135.35009766 C90.13785156 135.35009766 89.47785156 135.35009766 88.79785156 135.35009766 C88.28996094 134.29951172 87.78207031 133.24892578 87.25878906 132.16650391 C75.63415364 108.3494853 59.24601909 90.35164034 34.11035156 80.53759766 C22.8342374 76.77465539 9.71554473 74.27539425 -2.20214844 75.35009766 C-3.23984375 75.44291016 -4.27753906 75.53572266 -5.34667969 75.63134766 C-30.10748236 78.52149746 -53.09452685 90.04474851 -68.95996094 109.50634766 C-76.82182532 120.08284683 -82.78286011 132.64474208 -86.20214844 145.35009766 C-86.42644531 146.15705078 -86.65074219 146.96400391 -86.88183594 147.79541016 C-92.35532999 171.71382937 -86.2940283 196.41191055 -73.95214844 217.10009766 C-63.96465805 231.95844465 -50.74184521 241.93089595 -35.20214844 250.35009766 C-35.20214844 250.68009766 -35.20214844 251.01009766 -35.20214844 251.35009766 C-62.90806069 255.22408289 -88.08958707 252.58655696 -115.20214844 246.35009766 C-112.42648817 241.69748661 -112.42648817 241.69748661 -111.03417969 239.54150391 C-108.50596405 235.50217088 -107.71081034 233.04817314 -108.20214844 228.35009766 C-109.24338652 225.33208541 -110.58052701 222.48044225 -111.95214844 219.60009766 C-112.69623629 217.99941718 -113.43844014 216.39785949 -114.17871094 214.79541016 C-114.53352539 214.0300293 -114.88833984 213.26464844 -115.25390625 212.47607422 C-116.73248427 209.16107488 -117.91995751 205.75157259 -119.02246094 202.29541016 C-120.83120897 199.31277268 -123.21073985 198.09221231 -126.20214844 196.35009766 C-129.46386576 195.51860492 -129.46386576 195.51860492 -132.92089844 195.22509766 C-134.18289062 195.07556641 -135.44488281 194.92603516 -136.74511719 194.77197266 C-138.0509375 194.63275391 -139.35675781 194.49353516 -140.70214844 194.35009766 C-143.29753722 194.07339283 -145.89143252 193.78221517 -148.48339844 193.47509766 C-149.62873047 193.35392578 -150.7740625 193.23275391 -151.95410156 193.10791016 C-156.65012132 192.01226634 -159.95062541 189.81020786 -163.07714844 186.16259766 C-164.66066438 182.2038078 -164.4497798 178.55983073 -164.20214844 174.35009766 C-166.14228907 174.57870337 -168.07932257 174.83378947 -170.01464844 175.10009766 C-171.63306641 175.30892578 -171.63306641 175.30892578 -173.28417969 175.52197266 C-176.20293811 176.10564939 -176.20293811 176.10564939 -177.85960102 177.92808914 C-179.69199807 181.23380573 -179.62580803 184.24803569 -179.60087585 187.93035889 C-179.60752268 188.69740088 -179.61416951 189.46444287 -179.62101775 190.25472856 C-179.63968039 192.82669194 -179.63704032 195.39819144 -179.63452148 197.97021484 C-179.64353666 199.81315266 -179.65386328 201.65608446 -179.66540527 203.49900818 C-179.6930301 208.50482576 -179.70226724 213.51052974 -179.70825934 218.51641369 C-179.71762874 223.74684862 -179.74383095 228.97719822 -179.76826477 234.20758057 C-179.81197296 244.11327653 -179.84049339 254.01895597 -179.86358815 263.9247191 C-179.89061668 275.20155077 -179.93452963 286.47829678 -179.97987688 297.75506735 C-180.07278502 320.95336437 -180.14443751 344.15168827 -180.20214844 367.35009766 C-178.5419165 367.5694397 -178.5419165 367.5694397 -176.84814453 367.79321289 C-167.54390452 369.21433057 -159.37013673 376.10382384 -153.63183594 383.32666016 C-147.15898041 393.05532326 -144.94751538 404.87936537 -146.76464844 416.41259766 C-150.02956873 429.86669872 -157.19807501 438.86349081 -168.71386719 445.96728516 C-171.20214844 447.35009766 -171.20214844 447.35009766 -174.20214844 448.35009766 C-173.05359375 448.37587891 -171.90503906 448.40166016 -170.72167969 448.42822266 C-156.95379951 448.87143626 -144.45493239 450.20108682 -134.20214844 460.35009766 C-124.69546471 470.60282158 -123.03760521 482.51565627 -122.95214844 495.97509766 C-122.93152344 496.79494141 -122.91089844 497.61478516 -122.88964844 498.45947266 C-122.8571937 503.50618493 -123.36835422 506.98935606 -126.20214844 511.35009766 C-128.65621019 512.57712853 -130.26464438 512.48401882 -133.0093689 512.49726868 C-134.02445023 512.50442398 -135.03953156 512.51157928 -136.08537292 512.51895142 C-137.76231987 512.52298477 -137.76231987 512.52298477 -139.47314453 512.52709961 C-140.64719345 512.53367081 -141.82124237 512.540242 -143.03086853 512.54701233 C-146.25612377 512.56336583 -149.48134507 512.57497356 -152.70663023 512.58321786 C-154.72114666 512.58836756 -156.73565848 512.59444326 -158.75017166 512.60072899 C-165.0516816 512.61977977 -171.35317983 512.63401186 -177.65471303 512.64234096 C-184.93167527 512.65211793 -192.20833369 512.67844948 -199.48518884 512.71884185 C-205.10817773 512.74898434 -210.73107943 512.76380798 -216.35414755 512.76712197 C-219.71345279 512.76947437 -223.07243341 512.77845879 -226.43165207 512.80358315 C-230.17880485 512.82781439 -233.92515689 512.82703864 -237.67236328 512.82006836 C-238.78627945 512.83287842 -239.90019562 512.84568848 -241.04786682 512.85888672 C-242.0685878 512.8519429 -243.08930878 512.84499908 -244.14096069 512.83784485 C-245.02697149 512.8402332 -245.91298229 512.84262156 -246.8258419 512.84508228 C-250.00476751 512.18291211 -251.20575347 510.8593627 -253.20214844 508.35009766 C-253.93365926 504.2121234 -253.81843993 500.08766179 -253.77856445 495.89013672 C-253.76488349 493.88455521 -253.80047202 491.87883222 -253.83691406 489.87353516 C-253.81876273 477.70003815 -250.868022 468.09644202 -242.29589844 459.25244141 C-231.10306337 449.08283194 -217.59574703 448.80929937 -203.20214844 448.35009766 C-204.14574219 447.93050781 -204.14574219 447.93050781 -205.10839844 447.50244141 C-216.99457681 441.93527051 -223.80483502 434.52279117 -229.01464844 422.47509766 C-232.81870708 411.22142418 -231.48218401 399.74849566 -226.51464844 389.16259766 C-220.76692367 378.45659466 -212.88076047 371.24296833 -201.20214844 367.35009766 C-199.53580395 367.31732815 -197.86840099 367.31294637 -196.20214844 367.35009766 C-196.20583561 366.37310913 -196.20952278 365.39612061 -196.21332169 364.38952637 C-196.30214137 340.61127811 -196.36786166 316.83305138 -196.40939713 293.05467224 C-196.43001754 281.55559389 -196.45812832 270.05662517 -196.50390625 258.55761719 C-196.54378979 248.53444406 -196.56958504 238.51135033 -196.57850242 228.48810005 C-196.58371455 223.18141984 -196.59595439 217.87496676 -196.62506866 212.56835938 C-196.65226159 207.57136676 -196.66058553 202.57469439 -196.65457916 197.57763481 C-196.65567766 195.74588721 -196.66360837 193.91412866 -196.67897034 192.08244514 C-196.69895928 189.57565105 -196.69405572 187.07005598 -196.6831665 184.56323242 C-196.69481787 183.84336403 -196.70646924 183.12349564 -196.71847367 182.38181305 C-196.64339197 175.95932608 -194.42468985 170.88635764 -190.23730469 166.10791016 C-189.58632812 165.56908203 -188.93535156 165.03025391 -188.26464844 164.47509766 C-187.29205078 163.64365234 -187.29205078 163.64365234 -186.29980469 162.79541016 C-181.44395273 159.44966486 -177.17124082 159.08124942 -171.38964844 159.22509766 C-170.69677734 159.23412109 -170.00390625 159.24314453 -169.29003906 159.25244141 C-167.59392448 159.27583609 -165.89798973 159.31170125 -164.20214844 159.35009766 C-164.24855469 158.77001953 -164.29496094 158.18994141 -164.34277344 157.59228516 C-164.60344525 151.95060238 -164.08572579 148.75848276 -160.20214844 144.35009766 C-156.36522863 141.59828246 -153.24547347 140.83521613 -148.58105469 140.32275391 C-147.31583984 140.17 -146.050625 140.01724609 -144.74707031 139.85986328 C-142.09675025 139.55863863 -139.4454437 139.26789394 -136.79394531 138.97705078 C-135.52744141 138.82300781 -134.2609375 138.66896484 -132.95605469 138.51025391 C-131.80435791 138.38271729 -130.65266113 138.25518066 -129.46606445 138.1237793 C-125.58302795 137.20334077 -123.27424573 135.89029152 -120.20214844 133.35009766 C-118.54964611 130.78169958 -118.54964611 130.78169958 -117.49902344 127.85009766 C-117.07621094 126.79822266 -116.65339844 125.74634766 -116.21777344 124.66259766 C-115.80011719 123.56947266 -115.38246094 122.47634766 -114.95214844 121.35009766 C-114.09353781 119.18312797 -113.23419244 117.01644922 -112.37402344 114.85009766 C-112.00374023 113.89103516 -111.63345703 112.93197266 -111.25195312 111.94384766 C-110.20214844 109.35009766 -110.20214844 109.35009766 -109.0859375 107.24853516 C-107.31025648 103.43425461 -107.82873053 100.14719422 -109.20214844 96.35009766 C-111.9846411 91.93928231 -115.46247706 88.00228232 -118.81152344 84.01757812 C-128.47162117 72.43427975 -128.47162117 72.43427975 -128.20214844 64.35009766 C-126.30155811 59.76261168 -123.89970893 56.68095832 -120.38574219 53.20556641 C-119.45697266 52.28195313 -118.52820313 51.35833984 -117.57128906 50.40673828 C-117.09022705 49.93598877 -116.60916504 49.46523926 -116.11352539 48.98022461 C-114.63316774 47.53125436 -113.16396593 46.07166651 -111.69628906 44.60986328 C-103.19908722 36.2071404 -103.19908722 36.2071404 -98.01464844 36.03759766 C-96.91056641 35.98152344 -96.91056641 35.98152344 -95.78417969 35.92431641 C-89.06727517 37.03194514 -83.6681647 42.19595309 -78.57714844 46.41259766 C-70.36747821 53.64715162 -70.36747821 53.64715162 -59.98339844 55.90478516 C-54.94917379 54.90076844 -50.49600338 52.44032446 -45.94042969 50.15478516 C-41.91722239 48.15090458 -37.77652297 46.75014168 -33.47167969 45.46728516 C-30.28182912 43.89706612 -29.04912338 42.40702147 -27.20214844 39.35009766 C-26.35508777 36.19511963 -25.95944768 33.02778005 -25.57714844 29.78759766 C-25.33242919 27.99201487 -25.08763776 26.19644192 -24.84277344 24.40087891 C-24.46470774 21.46212832 -24.10265412 18.52240783 -23.74902344 15.58056641 C-22.89539106 9.29688363 -21.92312332 5.71699942 -17.20214844 1.35009766 C-12.44907754 -1.02643779 -5.28289267 0.03783721 0 0 Z " fill="#FEE176" transform="translate(253.2021484375,-0.35009765625)"/>
<path d="M0 0 C2.371875 0.04125 4.74375 0.0825 7.1875 0.125 C7.1875 5.075 7.1875 10.025 7.1875 15.125 C4.16015625 15.515625 1.1328125 15.90625 -1.89453125 16.296875 C-4.81328967 16.88055174 -4.81328967 16.88055174 -6.46995258 18.70299149 C-8.30234964 22.00870807 -8.2361596 25.02293803 -8.21122742 28.70526123 C-8.21787424 29.47230322 -8.22452107 30.23934521 -8.23136932 31.0296309 C-8.25003195 33.60159428 -8.24739188 36.17309379 -8.24487305 38.74511719 C-8.25388822 40.588055 -8.26421484 42.4309868 -8.27575684 44.27391052 C-8.30338166 49.2797281 -8.3126188 54.28543209 -8.31861091 59.29131603 C-8.32798031 64.52175097 -8.35418251 69.75210056 -8.37861633 74.98248291 C-8.42232452 84.88817887 -8.45084496 94.79385831 -8.47393972 104.69962144 C-8.50096824 115.97645311 -8.54488119 127.25319912 -8.59022844 138.52996969 C-8.68313658 161.72826672 -8.75478907 184.92659061 -8.8125 208.125 C-7.70567871 208.27122803 -6.59885742 208.41745605 -5.45849609 208.56811523 C3.84574391 209.98923292 12.01951171 216.87872618 17.7578125 224.1015625 C24.23066803 233.8302256 26.44213306 245.65426771 24.625 257.1875 C21.36007971 270.64160106 14.19157342 279.63839316 2.67578125 286.7421875 C0.1875 288.125 0.1875 288.125 -2.8125 289.125 C-1.66394531 289.15078125 -0.51539062 289.1765625 0.66796875 289.203125 C14.43584892 289.6463386 26.93471605 290.97598917 37.1875 301.125 C46.69418373 311.37772393 48.35204323 323.29055862 48.4375 336.75 C48.458125 337.56984375 48.47875 338.3896875 48.5 339.234375 C48.53245474 344.28108728 48.02129422 347.76425841 45.1875 352.125 C42.73343824 353.35203088 41.12500406 353.25892116 38.38027954 353.27217102 C37.36519821 353.27932632 36.35011688 353.28648163 35.30427551 353.29385376 C33.62732857 353.29788712 33.62732857 353.29788712 31.91650391 353.30200195 C30.15543053 353.31185875 30.15543053 353.31185875 28.35877991 353.32191467 C25.13352467 353.33826818 21.90830336 353.34987591 18.68301821 353.3581202 C16.66850178 353.3632699 14.65398995 353.3693456 12.63947678 353.37563133 C6.33796683 353.39468211 0.03646861 353.4089142 -6.2650646 353.4172433 C-13.54202683 353.42702027 -20.81868525 353.45335182 -28.0955404 353.49374419 C-33.71852929 353.52388669 -39.34143099 353.53871032 -44.96449912 353.54202431 C-48.32380435 353.54437672 -51.68278497 353.55336113 -55.04200363 353.57848549 C-58.78915641 353.60271674 -62.53550845 353.60194098 -66.28271484 353.5949707 C-67.9535891 353.61418579 -67.9535891 353.61418579 -69.65821838 353.63378906 C-70.67893936 353.62684525 -71.69966034 353.61990143 -72.75131226 353.61274719 C-73.63732306 353.61513555 -74.52333385 353.6175239 -75.43619347 353.61998463 C-78.61511907 352.95781445 -79.81610504 351.63426505 -81.8125 349.125 C-82.54401082 344.98702574 -82.42879149 340.86256413 -82.38891602 336.66503906 C-82.37523505 334.65945756 -82.41082359 332.65373456 -82.44726562 330.6484375 C-82.42911429 318.4749405 -79.47837356 308.87134437 -70.90625 300.02734375 C-59.71341494 289.85773428 -46.20609859 289.58420172 -31.8125 289.125 C-32.75609375 288.70541016 -32.75609375 288.70541016 -33.71875 288.27734375 C-45.60492837 282.71017286 -52.41518659 275.29769352 -57.625 263.25 C-61.42905864 251.99632653 -60.09253558 240.523398 -55.125 229.9375 C-49.37727523 219.231497 -41.49111203 212.01787068 -29.8125 208.125 C-28.14615552 208.0922305 -26.47875255 208.08784871 -24.8125 208.125 C-24.81618717 207.14801147 -24.81987434 206.17102295 -24.82367325 205.16442871 C-24.91249294 181.38618045 -24.97821322 157.60795372 -25.01974869 133.82957458 C-25.0403691 122.33049624 -25.06847988 110.83152751 -25.11425781 99.33251953 C-25.15414136 89.3093464 -25.1799366 79.28625267 -25.18885398 69.2630024 C-25.19406612 63.95632218 -25.20630595 58.6498691 -25.23542023 53.34326172 C-25.26261316 48.3462691 -25.27093709 43.34959674 -25.26493073 38.35253716 C-25.26602922 36.52078955 -25.27395993 34.689031 -25.2893219 32.85734749 C-25.30931085 30.35055339 -25.30440728 27.84495832 -25.29351807 25.33813477 C-25.30516943 24.61826637 -25.3168208 23.89839798 -25.32882524 23.15671539 C-25.25374353 16.73422843 -23.03504141 11.66125998 -18.84765625 6.8828125 C-18.19667969 6.34398437 -17.54570313 5.80515625 -16.875 5.25 C-16.22660156 4.69570312 -15.57820313 4.14140625 -14.91015625 3.5703125 C-10.05646036 0.22605276 -5.7710431 -0.14246376 0 0 Z " fill="#FDD1A4" transform="translate(81.8125,158.875)"/>
<path d="M0 0 C17.36320305 -0.62011439 17.36320305 -0.62011439 23 4 C28.15457203 8.91840638 31.74570865 13.28201417 32.24609566 20.59815693 C32.25445778 22.01620493 32.25184708 23.43434389 32.24050903 24.85237122 C32.24221788 25.63660184 32.24392673 26.42083247 32.24568737 27.22882766 C32.24897791 29.85292183 32.23798578 32.47675951 32.22705078 35.10083008 C32.22648657 36.983317 32.22680341 38.86580435 32.22793579 40.74829102 C32.22850993 45.85737466 32.21674567 50.96636451 32.20278788 56.07542634 C32.19029075 61.4152442 32.18911082 66.75506418 32.18673706 72.09489441 C32.18051931 82.20600731 32.16410447 92.31707699 32.14403808 102.42817086 C32.12168829 113.93954905 32.11068796 125.4509293 32.10064721 136.96232378 C32.07973852 160.64157315 32.04455677 184.32078416 32 208 C33.10158447 208.14550293 34.20316895 208.29100586 35.33813477 208.44091797 C43.82358181 209.73644925 51.30332255 214.67852567 57 221 C64.80257602 231.82806468 68.33106861 243.10976483 66.4375 256.5 C63.83721417 268.57649527 57.56145014 278.19969695 47.3125 284.875 C44.50609511 286.60619859 42.13102629 287.95632457 39 289 C40.14855469 289.02578125 41.29710937 289.0515625 42.48046875 289.078125 C56.24834892 289.5213386 68.74721605 290.85098917 79 301 C87.55859248 310.2302309 89.67827449 319.9746772 89.52148438 332.35205078 C89.49980427 334.39342955 89.5214993 336.43137611 89.546875 338.47265625 C89.54171875 339.76816406 89.5365625 341.06367188 89.53125 342.3984375 C89.52673828 343.57067871 89.52222656 344.74291992 89.51757812 345.95068359 C88.88362757 349.68560925 87.9127616 350.65109291 85 353 C82.62928009 353.50336456 82.62928009 353.50336456 79.95227051 353.50793457 C78.42552452 353.52485352 78.42552452 353.52485352 76.86793518 353.54211426 C75.20177406 353.52996887 75.20177406 353.52996887 73.50195312 353.51757812 C71.74044167 353.52809204 71.74044167 353.52809204 69.94334412 353.53881836 C66.72625004 353.55340485 63.50981449 353.54998943 60.29273033 353.53730202 C56.92467245 353.52716841 53.55665826 353.53656868 50.18859863 353.54284668 C44.53271598 353.55012209 38.87704232 353.54053839 33.22119141 353.52148438 C26.6840447 353.49971556 20.14739701 353.50676702 13.61026239 353.52879 C7.99568491 353.54694724 2.38125757 353.54950083 -3.23333979 353.53903532 C-6.58585444 353.53280206 -9.93813461 353.53195981 -13.29063416 353.54518127 C-17.0280858 353.55531706 -20.76457345 353.53988539 -24.50195312 353.51757812 C-25.6127272 353.52567505 -26.72350128 353.53377197 -27.86793518 353.54211426 C-28.88576584 353.53083496 -29.9035965 353.51955566 -30.95227051 353.50793457 C-32.27739025 353.50567242 -32.27739025 353.50567242 -33.62928009 353.50336456 C-36.7967896 352.83082116 -37.9869448 351.48403548 -40 349 C-43.91715541 337.24853376 -41.38067519 320.82167689 -36.4375 309.8125 C-31.98052777 301.45161048 -24.97628638 295.19790097 -16 292 C-10.10888693 290.28622165 -4.61674844 289.61409114 1.5 289.375 C2.32242188 289.33632813 3.14484375 289.29765625 3.9921875 289.2578125 C5.9944701 289.16468308 7.99720262 289.08131015 10 289 C9.05640625 288.58041016 9.05640625 288.58041016 8.09375 288.15234375 C-2.39200107 283.24109588 -8.7406732 277.35429964 -14 267 C-14.33 266.35289062 -14.66 265.70578125 -15 265.0390625 C-19.45630735 254.88382363 -18.85529647 242.63331275 -15.03125 232.41015625 C-9.85035204 221.05068741 -1.68185128 213.94871337 9.55078125 208.83984375 C12 208 12 208 16 208 C15.96286052 183.68721968 15.9030399 159.37458717 15.81609726 135.06193161 C15.77626055 123.77354438 15.74389162 112.48522732 15.72900391 101.19677734 C15.71601138 91.35961012 15.68910823 81.52259703 15.64538693 71.6855166 C15.62271808 66.4751514 15.60709256 61.26497669 15.60811615 56.0545578 C15.60885956 51.15269507 15.59103746 46.25125427 15.55883217 41.34950066 C15.55029711 39.54836131 15.54860756 37.74717483 15.55419731 35.94602394 C15.56080476 33.49027242 15.54299651 31.0358762 15.51898193 28.58026123 C15.52674235 27.86430526 15.53450277 27.1483493 15.54249835 26.4106977 C15.484035 23.04332086 15.21740868 21.28346075 13.14236832 18.57799149 C10.50298737 16.63391836 8.48081274 16.21154468 5.25 15.75 C2.65125 15.37875 2.65125 15.37875 0 15 C0 10.05 0 5.1 0 0 Z " fill="#FDD1A4" transform="translate(423,159)"/>
<path d="M0 0 C1.93307259 -0.01441132 1.93307259 -0.01441132 3.90519714 -0.02911377 C5.30569276 -0.03396352 6.70619046 -0.03824192 8.10668945 -0.04199219 C8.8177717 -0.04481956 9.52885395 -0.04764694 10.26148415 -0.05056 C14.02719109 -0.06552093 17.79286005 -0.07476895 21.55859375 -0.07910156 C25.42395894 -0.0845707 29.28896914 -0.10857431 33.15422344 -0.13707352 C36.14761832 -0.15581865 39.14092986 -0.16091184 42.13437843 -0.16243744 C43.55796046 -0.16543958 44.9815419 -0.17338433 46.40506554 -0.18662262 C61.11820975 -0.31364551 71.27992331 2.43921108 82.2824707 12.34863281 C91.12316239 21.57995971 91.74583012 33.10563805 91.8449707 45.16113281 C91.87397461 46.33675781 91.90297852 47.51238281 91.93286133 48.72363281 C91.94124023 49.85800781 91.94961914 50.99238281 91.95825195 52.16113281 C91.98012573 53.70800781 91.98012573 53.70800781 92.00244141 55.28613281 C91.36014943 59.21529143 90.55692317 60.51178512 87.5324707 63.16113281 C83.68150743 63.93683533 79.85946129 63.84349696 75.94262695 63.80810547 C74.16648514 63.82124786 74.16648514 63.82124786 72.35446167 63.83465576 C69.11038655 63.85289019 65.86733171 63.84861976 62.62327194 63.83276033 C59.22717915 63.82009382 55.83115409 63.8318435 52.43505859 63.83969116 C46.7320534 63.84878564 41.02937204 63.83680552 35.32641602 63.81298828 C28.73464412 63.78577685 22.14364544 63.79459119 15.55189228 63.82212031 C9.89058219 63.84481653 4.22950476 63.84800913 -1.43183613 63.83492696 C-4.81234218 63.82713505 -8.19248488 63.82608305 -11.57296753 63.84260941 C-15.34174198 63.85527928 -19.10902264 63.83599134 -22.87768555 63.80810547 C-24.55787277 63.8232872 -24.55787277 63.8232872 -26.27200317 63.83877563 C-33.81408606 63.73515831 -33.81408606 63.73515831 -37.16053772 60.79542542 C-38.67203817 57.7489372 -38.96991612 55.73107112 -38.96362305 52.33691406 C-38.96426758 51.22509766 -38.96491211 50.11328125 -38.96557617 48.96777344 C-38.9455957 47.81470703 -38.92561523 46.66164063 -38.9050293 45.47363281 C-38.91211914 44.33990234 -38.91920898 43.20617187 -38.92651367 42.03808594 C-38.83336574 29.60641995 -35.76209291 19.82853688 -27.4050293 10.53613281 C-19.80030499 3.24896842 -10.32447461 0.06231828 0 0 Z " fill="#B2DAFD" transform="translate(229.467529296875,448.8388671875)"/>
<path d="M0 0 C1.41045377 -0.00457637 2.82090532 -0.00988618 4.23135376 -0.0158844 C7.17125572 -0.02475845 10.11088522 -0.02245888 13.05078125 -0.01245117 C16.78136044 -0.00097684 20.51099078 -0.02117763 24.24144554 -0.05036831 C27.15007301 -0.06889155 30.05847987 -0.06840607 32.96715164 -0.06273079 C34.3407995 -0.06257949 35.71446421 -0.06846175 37.08805466 -0.08102226 C49.26596329 -0.17671841 60.73497389 1.32889918 70.234375 9.5234375 C81.03256735 20.2123364 83.32078948 32.36809287 83.4140625 47.05859375 C83.445 48.28835938 83.445 48.28835938 83.4765625 49.54296875 C83.50901724 54.58968103 82.99785672 58.07285216 80.1640625 62.43359375 C77.71000074 63.66062463 76.10156656 63.56751491 73.35684204 63.58076477 C72.34176071 63.58792007 71.32667938 63.59507538 70.28083801 63.60244751 C68.60389107 63.60648087 68.60389107 63.60648087 66.89306641 63.6105957 C65.71901749 63.6171669 64.54496857 63.6237381 63.33534241 63.63050842 C60.11008717 63.64686193 56.88486586 63.65846966 53.65958071 63.66671395 C51.64506428 63.67186365 49.63055245 63.67793935 47.61603928 63.68422508 C41.31452933 63.70327586 35.01303111 63.71750795 28.7114979 63.72583705 C21.43453567 63.73561402 14.15787725 63.76194557 6.8810221 63.80233794 C1.25803321 63.83248044 -4.36486849 63.84730407 -9.98793662 63.85061806 C-13.34724185 63.85297047 -16.70622247 63.86195488 -20.06544113 63.88707924 C-23.81259391 63.91131049 -27.55894595 63.91053473 -31.30615234 63.90356445 C-32.42006851 63.91637451 -33.53398468 63.92918457 -34.68165588 63.94238281 C-35.70237686 63.935439 -36.72309784 63.92849518 -37.77474976 63.92134094 C-38.66076056 63.9237293 -39.54677135 63.92611765 -40.45963097 63.92857838 C-43.63855657 63.2664082 -44.83954254 61.9428588 -46.8359375 59.43359375 C-47.56744832 55.29561949 -47.45222899 51.17115788 -47.41235352 46.97363281 C-47.39867255 44.96805131 -47.43426109 42.96232831 -47.47070312 40.95703125 C-47.45255179 28.78353425 -44.50181106 19.17993812 -35.9296875 10.3359375 C-25.56877189 0.92219514 -13.52669111 -0.03898222 0 0 Z " fill="#FE79B5" transform="translate(46.8359375,448.56640625)"/>
<path d="M0 0 C1.41474028 -0.00644275 2.82947928 -0.01317215 4.24421692 -0.02017212 C7.20198651 -0.03209913 10.15963973 -0.03585787 13.11743164 -0.03466797 C16.87159453 -0.03446544 20.62499487 -0.06171921 24.37897778 -0.09621239 C27.3004536 -0.11866828 30.22175161 -0.12249981 33.14330482 -0.12144852 C34.52533904 -0.12377836 35.9073802 -0.13245059 37.28932762 -0.14811325 C49.50970501 -0.2736189 60.99150342 1.1998091 70.52734375 9.42578125 C78.37294372 17.19197232 82.56210235 25.61343813 82.98828125 36.734375 C82.99613298 38.7188999 83.00365273 40.70360706 82.97851562 42.68798828 C82.95683552 44.72936705 82.97853055 46.76731361 83.00390625 48.80859375 C82.99875 50.10410156 82.99359375 51.39960938 82.98828125 52.734375 C82.98376953 53.90661621 82.97925781 55.07885742 82.97460938 56.28662109 C82.34065882 60.02154675 81.36979285 60.98703041 78.45703125 63.3359375 C76.08631134 63.83930206 76.08631134 63.83930206 73.40930176 63.84387207 C72.3914711 63.85515137 71.37364044 63.86643066 70.32496643 63.87805176 C68.65880531 63.86590637 68.65880531 63.86590637 66.95898438 63.85351562 C65.19747292 63.86402954 65.19747292 63.86402954 63.40037537 63.87475586 C60.18328129 63.88934235 56.96684574 63.88592693 53.74976158 63.87323952 C50.3817037 63.86310591 47.01368951 63.87250618 43.64562988 63.87878418 C37.98974723 63.88605959 32.33407357 63.87647589 26.67822266 63.85742188 C20.14107595 63.83565306 13.60442826 63.84270452 7.06729364 63.8647275 C1.45271616 63.88288474 -4.16171118 63.88543833 -9.77630854 63.87497282 C-13.12882319 63.86873956 -16.48110336 63.86789731 -19.83360291 63.88111877 C-23.57105455 63.89125456 -27.3075422 63.87582289 -31.04492188 63.85351562 C-32.15569595 63.86161255 -33.26647003 63.86970947 -34.41090393 63.87805176 C-35.42873459 63.86677246 -36.44656525 63.85549316 -37.49523926 63.84387207 C-38.820359 63.84160992 -38.820359 63.84160992 -40.17224884 63.83930206 C-43.33975835 63.16675866 -44.52991355 61.81997298 -46.54296875 59.3359375 C-50.46012416 47.58447126 -47.92364394 31.15761439 -42.98046875 20.1484375 C-37.78372179 10.39979539 -29.67099801 4.60561237 -19.31347656 1.30761719 C-12.97642274 -0.24562552 -6.48522875 0.00698846 0 0 Z " fill="#BAF49A" transform="translate(429.54296875,448.6640625)"/>
<path d="M0 0 C5.28 0 10.56 0 16 0 C16 11.22 16 22.44 16 34 C18.31 34.33 20.62 34.66 23 35 C33.03892359 38.34630786 41.15059353 45.85843653 46 55.1875 C50.9742176 65.92230049 52.03878765 78.41249921 48.0390625 89.6640625 C42.65418023 101.76992565 35.21776418 109.71070513 23 115 C11.15654521 118.80227658 -1.51640944 117.96641861 -12.5625 112.375 C-23.34323446 106.08999721 -30.42988184 96.63794311 -33.671875 84.48046875 C-35.27445919 72.36569543 -34.18857815 60.18495352 -26.75 50.125 C-19.02160185 41.14423882 -11.83905988 35.69129427 0 34 C0 22.78 0 11.56 0 0 Z " fill="#FDD1A4" transform="translate(248,333)"/>
<path d="M0 0 C17.36320305 -0.62011439 17.36320305 -0.62011439 23 4 C28.15457203 8.91840638 31.74570865 13.28201417 32.24609566 20.59815693 C32.25445778 22.01620493 32.25184708 23.43434389 32.24050903 24.85237122 C32.24221788 25.63660184 32.24392673 26.42083247 32.24568737 27.22882766 C32.24897791 29.85292183 32.23798578 32.47675951 32.22705078 35.10083008 C32.22648657 36.983317 32.22680341 38.86580435 32.22793579 40.74829102 C32.22850993 45.85737466 32.21674567 50.96636451 32.20278788 56.07542634 C32.19029075 61.4152442 32.18911082 66.75506418 32.18673706 72.09489441 C32.18051931 82.20600731 32.16410447 92.31707699 32.14403808 102.42817086 C32.12168829 113.93954905 32.11068796 125.4509293 32.10064721 136.96232378 C32.07973852 160.64157397 32.0441542 184.32078274 32 208 C26.72 208 21.44 208 16 208 C15.99635437 205.6661322 15.99270874 203.3322644 15.98895264 200.92767334 C15.95276327 178.97234372 15.89460965 157.01715131 15.81609726 135.06193161 C15.77626055 123.77354438 15.74389162 112.48522732 15.72900391 101.19677734 C15.71601138 91.35961012 15.68910823 81.52259703 15.64538693 71.6855166 C15.62271808 66.4751514 15.60709256 61.26497669 15.60811615 56.0545578 C15.60885956 51.15269507 15.59103746 46.25125427 15.55883217 41.34950066 C15.55029711 39.54836131 15.54860756 37.74717483 15.55419731 35.94602394 C15.56080476 33.49027242 15.54299651 31.0358762 15.51898193 28.58026123 C15.52674235 27.86430526 15.53450277 27.1483493 15.54249835 26.4106977 C15.484035 23.04332086 15.21740868 21.28346075 13.14236832 18.57799149 C10.50298737 16.63391836 8.48081274 16.21154468 5.25 15.75 C2.65125 15.37875 2.65125 15.37875 0 15 C0 10.05 0 5.1 0 0 Z " fill="#B7C4CE" transform="translate(423,159)"/>
<path d="M0 0 C2.371875 0.04125 4.74375 0.0825 7.1875 0.125 C7.1875 5.075 7.1875 10.025 7.1875 15.125 C4.16015625 15.515625 1.1328125 15.90625 -1.89453125 16.296875 C-4.81328967 16.88055174 -4.81328967 16.88055174 -6.46995258 18.70299149 C-8.30234964 22.00870807 -8.2361596 25.02293803 -8.21122742 28.70526123 C-8.21787424 29.47230322 -8.22452107 30.23934521 -8.23136932 31.0296309 C-8.25003195 33.60159428 -8.24739188 36.17309379 -8.24487305 38.74511719 C-8.25388822 40.588055 -8.26421484 42.4309868 -8.27575684 44.27391052 C-8.30338166 49.2797281 -8.3126188 54.28543209 -8.31861091 59.29131603 C-8.32798031 64.52175097 -8.35418251 69.75210056 -8.37861633 74.98248291 C-8.42232452 84.88817887 -8.45084496 94.79385831 -8.47393972 104.69962144 C-8.50096824 115.97645311 -8.54488119 127.25319912 -8.59022844 138.52996969 C-8.68313659 161.72826855 -8.75419015 184.92659061 -8.8125 208.125 C-14.0925 208.125 -19.3725 208.125 -24.8125 208.125 C-24.90511714 183.3598904 -24.97648938 158.59482255 -25.01974869 133.82957458 C-25.0403691 122.33049624 -25.06847988 110.83152751 -25.11425781 99.33251953 C-25.15414136 89.3093464 -25.1799366 79.28625267 -25.18885398 69.2630024 C-25.19406612 63.95632218 -25.20630595 58.6498691 -25.23542023 53.34326172 C-25.26261316 48.3462691 -25.27093709 43.34959674 -25.26493073 38.35253716 C-25.26602922 36.52078955 -25.27395993 34.689031 -25.2893219 32.85734749 C-25.30931085 30.35055339 -25.30440728 27.84495832 -25.29351807 25.33813477 C-25.30516943 24.61826637 -25.3168208 23.89839798 -25.32882524 23.15671539 C-25.25374353 16.73422843 -23.03504141 11.66125998 -18.84765625 6.8828125 C-18.19667969 6.34398437 -17.54570313 5.80515625 -16.875 5.25 C-16.22660156 4.69570312 -15.57820313 4.14140625 -14.91015625 3.5703125 C-10.05646036 0.22605276 -5.7710431 -0.14246376 0 0 Z " fill="#B7C4CE" transform="translate(81.8125,158.875)"/>
<path d="M0 0 C6.18333257 0.99550252 10.82474989 6.27425661 14.58984375 10.9921875 C21.03019826 20.74080922 23.25573837 32.52225241 21.4375 44.0625 C18.64580273 55.5665411 12.55197606 65.07191465 2.875 71.75 C-7.28936705 77.87062698 -18.6344196 79.59487684 -30.2578125 77.37890625 C-41.0794283 74.50081694 -49.59470254 68.82664599 -56.07421875 59.6640625 C-57 58 -57 58 -57 56 C-56.49855469 56.2165625 -55.99710938 56.433125 -55.48046875 56.65625 C-45.07532897 60.48505782 -31.88224415 60.96745609 -21.4375 57.0625 C-10.0256397 51.40451884 -2.7921961 42.64368289 1.3125 30.8125 C4.36848338 20.06686737 3.535053 10.49994908 0 0 Z " fill="#FEBD87" transform="translate(85,372)"/>
<path d="M0 0 C8.95258176 3.44330068 15.03743324 10.95066432 19.02734375 19.4453125 C23.25523902 30.5499049 23.901875 42.97999529 19 54 C13.49629585 65.04076407 6.36947409 72.07794552 -5 77 C-16.84345479 80.80227658 -29.51640944 79.96641861 -40.5625 74.375 C-47.85982586 70.17878177 -53.83415674 64.91460815 -57 57 C-54.53200079 57.59553894 -52.16894068 58.27169247 -49.75 59.0625 C-37.90479495 61.96291469 -26.15557173 60.49203713 -15.5390625 54.64453125 C-5.47589064 48.40937659 -0.7006587 40.1019761 3 29 C3.50736728 19.76981841 3.57915044 11.64961356 0 3 C0 2.01 0 1.02 0 0 Z " fill="#FEBD87" transform="translate(276,371)"/>
<path d="M0 0 C6.05725226 1.09030541 10.23458821 5.56712827 13.74609375 10.40625 C20.72093078 21.67730835 23.70742447 32.95780046 20.85546875 46.203125 C17.14332263 58.33963925 10.78785545 66.9851547 -0.01171875 73.48828125 C-10.57956841 78.8343699 -22.21423353 79.51815598 -33.5625 76.5 C-43.27000802 73.19432581 -51.93819464 67.09843495 -57 58 C-57 57.34 -57 56.68 -57 56 C-56.41476562 56.2165625 -55.82953125 56.433125 -55.2265625 56.65625 C-43.54247413 60.44568407 -29.89949598 61.20407974 -18.6796875 55.671875 C-7.55898247 48.73359256 -0.48975552 39.41424964 2.53515625 26.65234375 C4.12294023 17.59263517 2.2784935 8.80606947 0 0 Z " fill="#FEBD87" transform="translate(468,372)"/>
<path d="M0 0 C4.29153445 -0.08807085 8.58283224 -0.14074921 12.875 -0.1875 C14.07898438 -0.21263672 15.28296875 -0.23777344 16.5234375 -0.26367188 C30.17147669 -0.37493306 39.6135111 3.05809207 49.75 12.1875 C58.59069168 21.4188269 59.21335942 32.94450524 59.3125 45 C59.34150391 46.175625 59.37050781 47.35125 59.40039062 48.5625 C59.40876953 49.696875 59.41714844 50.83125 59.42578125 52 C59.44036377 53.03125 59.45494629 54.0625 59.4699707 55.125 C58.86388954 58.8326425 57.74573293 60.45543445 55 63 C52.34277344 63.56762695 52.34277344 63.56762695 49.359375 63.48828125 C48.28945313 63.47216797 47.21953125 63.45605469 46.1171875 63.43945312 C45.00601563 63.39755859 43.89484375 63.35566406 42.75 63.3125 C41.62335938 63.28994141 40.49671875 63.26738281 39.3359375 63.24414062 C36.55594768 63.18524254 33.77864668 63.10304201 31 63 C30.9906543 62.02240723 30.98130859 61.04481445 30.97167969 60.03759766 C30.9314165 56.36560646 30.86556334 52.69442157 30.79248047 49.02294922 C30.76447921 47.44232645 30.74316236 45.86156909 30.72900391 44.28076172 C30.60032857 30.71838161 29.11320666 21.36352263 19.359375 11.1953125 C13.5896118 5.826758 7.52622825 3.14288443 0 1 C0 0.67 0 0.34 0 0 Z " fill="#8BC9FE" transform="translate(262,449)"/>
<path d="M0 0 C35.38705417 -0.98857141 35.38705417 -0.98857141 47.0703125 9.08984375 C57.86850485 19.77874265 60.15672698 31.93449912 60.25 46.625 C60.270625 47.44484375 60.29125 48.2646875 60.3125 49.109375 C60.34495474 54.15608728 59.83379422 57.63925841 57 62 C54.44276771 63.27861615 52.63262898 63.11336609 49.7734375 63.09765625 C48.7421875 63.09443359 47.7109375 63.09121094 46.6484375 63.08789062 C45.56820312 63.07951172 44.48796875 63.07113281 43.375 63.0625 C41.74304688 63.05573242 41.74304688 63.05573242 40.078125 63.04882812 C37.38536211 63.03701776 34.69270812 63.02054778 32 63 C31.98018066 62.17387207 31.96036133 61.34774414 31.93994141 60.49658203 C31.86108928 57.38388326 31.7743779 54.27152265 31.68261719 51.15917969 C31.62624001 49.1687787 31.57864607 47.1781351 31.53125 45.1875 C31.1188522 31.57837269 29.69248862 21.54131495 20.30078125 11.11328125 C14.57885016 5.81816087 7.35038573 3.26165715 0 1 C0 0.67 0 0.34 0 0 Z " fill="#FE5694" transform="translate(70,449)"/>
<path d="M0 0 C34.37302857 -1.00067041 34.37302857 -1.00067041 46.0703125 9.08984375 C53.91591247 16.85603482 58.1050711 25.27750063 58.53125 36.3984375 C58.53910173 38.3829624 58.54662148 40.36766956 58.52148438 42.35205078 C58.49980427 44.39342955 58.5214993 46.43137611 58.546875 48.47265625 C58.54171875 49.76816406 58.5365625 51.06367188 58.53125 52.3984375 C58.52673828 53.57067871 58.52222656 54.74291992 58.51757812 55.95068359 C58 59 58 59 56.30566406 61.38818359 C53.48468596 63.36023966 51.99445793 63.46654351 48.578125 63.390625 C47.04091797 63.37128906 47.04091797 63.37128906 45.47265625 63.3515625 C43.87744141 63.30128906 43.87744141 63.30128906 42.25 63.25 C40.63158203 63.22292969 40.63158203 63.22292969 38.98046875 63.1953125 C36.31941212 63.14821415 33.66015746 63.082456 31 63 C30.98541748 62.11328613 30.97083496 61.22657227 30.95581055 60.31298828 C30.89421681 56.97647924 30.81997118 53.64072286 30.73754883 50.3046875 C30.70459645 48.86957141 30.67647537 47.43433495 30.65356445 45.99902344 C30.4231479 31.93871138 28.64247878 20.51209656 18.1875 10.21484375 C12.78959097 5.81779702 6.46305137 3.43441602 0 1 C0 0.67 0 0.34 0 0 Z " fill="#9BE69C" transform="translate(454,449)"/>
<path d="M0 0 C2.53945537 1.5417287 4.49420417 3.5349923 6.5546875 5.66015625 C7.43521286 6.5341935 7.43521286 6.5341935 8.33352661 7.42588806 C9.5671612 8.65914217 10.79212285 9.90112572 12.00878906 11.15112305 C13.86768742 13.05501044 15.75871934 14.92181115 17.65625 16.78710938 C18.85364546 17.99272648 20.04902862 19.20034619 21.2421875 20.41015625 C21.80565887 20.96461929 22.36913025 21.51908234 22.94967651 22.09034729 C26.54188891 25.83613244 28.05486537 28.58939951 28 34 C26.93554688 36.046875 26.93554688 36.046875 25.21875 37.75 C24.5690625 38.41773438 23.919375 39.08546875 23.25 39.7734375 C22.5075 40.50820312 21.765 41.24296875 21 42 C19.32206692 43.79087088 17.64503522 45.58258659 15.96875 47.375 C14.14872328 49.25280535 12.32575409 51.12776278 10.5 53 C10.04318848 53.4842041 9.58637695 53.9684082 9.11572266 54.46728516 C7.77153714 55.89056844 6.40163795 57.28942744 5.03125 58.6875 C4.23267578 59.51636719 3.43410156 60.34523437 2.61132812 61.19921875 C-0.79422213 63.54769843 -2.94541706 63.45130097 -7 63 C-9.96413207 60.97190963 -10.82327105 59.50809574 -12 56.125 C-12 50.51813475 -8.07255381 46.95942227 -4.328125 43.1328125 C-2.97385973 41.79169544 -1.61436737 40.45583849 -0.25 39.125 C0.44738281 38.43664062 1.14476562 37.74828125 1.86328125 37.0390625 C3.57103343 35.35470418 5.28329443 33.67522383 7 32 C2.4128988 26.5001181 -2.45779264 21.52642159 -7.609375 16.55078125 C-9.67420629 14.34761976 -10.99382343 12.81137572 -12 10 C-11.85411447 6.4987473 -11.35842363 4.52384992 -9.375 1.625 C-6.00433233 -0.6812463 -4.03224588 -0.48813051 0 0 Z " fill="#6B7DD9" transform="translate(295,135)"/>
<path d="M0 0 C2.68601216 1.90848233 3.7337462 3.32549038 4.9375 6.375 C5.04174537 10.75330541 3.11296729 13.7360771 0.25219727 16.98486328 C-1.85921391 19.15399358 -4.01029755 21.27195554 -6.1875 23.375 C-6.93708984 24.11105469 -7.68667969 24.84710938 -8.45898438 25.60546875 C-10.29934824 27.41066643 -12.14635923 29.20845508 -14 31 C-9.42661134 36.49249095 -4.56359036 41.41887149 0.609375 46.3515625 C3.55687989 49.61693557 5.09149758 52.12429964 4.875 56.5625 C3.75092091 59.69386319 2.72235378 61.065696 0 63 C-3.23731977 63.45902295 -5.77184533 63.74580584 -8.65765381 61.99337769 C-10.38873274 60.52078162 -11.97263561 58.97155783 -13.5546875 57.33984375 C-14.14170441 56.75715225 -14.72872131 56.17446075 -15.33352661 55.57411194 C-16.5671612 54.34085783 -17.79212285 53.09887428 -19.00878906 51.84887695 C-20.86768742 49.94498956 -22.75871934 48.07818885 -24.65625 46.21289062 C-25.85364546 45.00727352 -27.04902862 43.79965381 -28.2421875 42.58984375 C-28.80565887 42.03538071 -29.36913025 41.48091766 -29.94967651 40.90965271 C-33.54188891 37.16386756 -35.05486537 34.41060049 -35 29 C-33.93554688 26.953125 -33.93554688 26.953125 -32.21875 25.25 C-31.5690625 24.58226562 -30.919375 23.91453125 -30.25 23.2265625 C-29.5075 22.49179688 -28.765 21.75703125 -28 21 C-26.32206692 19.20912912 -24.64503522 17.41741341 -22.96875 15.625 C-21.14872328 13.74719465 -19.32575409 11.87223722 -17.5 10 C-17.04318848 9.5157959 -16.58637695 9.0315918 -16.11572266 8.53271484 C-14.77153714 7.10943156 -13.40163795 5.71057256 -12.03125 4.3125 C-11.23267578 3.48363281 -10.43410156 2.65476563 -9.61132812 1.80078125 C-6.2049822 -0.54824713 -4.05544578 -0.45614856 0 0 Z " fill="#6C7ED7" transform="translate(224,135)"/>
<path d="M0 0 C4.07174573 0.84828036 5.43000451 2.39185873 8 5.625 C8.34863281 8.9387207 8.34863281 8.9387207 7.953125 12.73828125 C7.88740295 13.43069412 7.82168091 14.12310699 7.75396729 14.83650208 C7.53025335 17.10315615 7.26633579 19.3629904 7 21.625 C6.83523583 23.18784626 6.67183837 24.75083718 6.50976562 26.31396484 C6.07895658 30.33836557 5.58561947 34.35204255 5.06298828 38.36547852 C4.85196275 40.01532942 4.65067051 41.66645074 4.45849609 43.31860352 C4.17539436 45.75066155 3.86443557 48.17769896 3.546875 50.60546875 C3.46644958 51.33879929 3.38602417 52.07212982 3.30316162 52.8276825 C2.58767015 57.93442631 1.03771565 60.44908476 -3 63.625 C-6 64.25 -6 64.25 -9 63.625 C-11.69042969 61.53051758 -11.69042969 61.53051758 -14 58.625 C-14.34863281 55.3112793 -14.34863281 55.3112793 -13.953125 51.51171875 C-13.88740295 50.81930588 -13.82168091 50.12689301 -13.75396729 49.41349792 C-13.53025335 47.14684385 -13.26633579 44.8870096 -13 42.625 C-12.83523583 41.06215374 -12.67183837 39.49916282 -12.50976562 37.93603516 C-12.07895658 33.91163443 -11.58561947 29.89795745 -11.06298828 25.88452148 C-10.85196275 24.23467058 -10.65067051 22.58354926 -10.45849609 20.93139648 C-10.17539436 18.49933845 -9.86443557 16.07230104 -9.546875 13.64453125 C-9.46644958 12.91120071 -9.38602417 12.17787018 -9.30316162 11.4223175 C-8.46953891 5.47242461 -6.13508363 1.27814242 0 0 Z " fill="#6B7ED8" transform="translate(259,134.375)"/>
<path d="M0 0 C5.28 0 10.56 0 16 0 C16 11.22 16 22.44 16 34 C10.72 34 5.44 34 0 34 C0 22.78 0 11.56 0 0 Z " fill="#B5C3CE" transform="translate(248,333)"/>
</svg>
